<svg width="32" height="32" viewBox="0 0 32 32" fill="none" xmlns="http://www.w3.org/2000/svg">
  <rect width="32" height="32" rx="6" fill="black"/>
  <svg x="4" y="4" width="24" height="24" viewBox="0 40 120 120">
    <path fill-rule="evenodd" clip-rule="evenodd" d="M0 127.424C0 106.823 15.4222 93.9689 43.0144 93.9689C58.8725 93.9689 73.215 97.7363 85.1638 105.046C86.25 100.834 86.9005 96.1842 86.9005 91.7536C86.9005 70.4824 74.9517 58.2981 51.4898 58.2981C31.7161 58.2981 22.3756 68.2671 24.7692 84.2188L6.30289 86.4341C2.17251 58.2981 20.4242 40.5754 52.7972 40.5754C87.1216 40.5754 107.546 58.517 107.546 91.0903C107.546 100.615 105.159 110.139 101.028 118.782C109.068 128.088 115.15 139.828 119.059 154.453L102.329 160.435C99.7209 150.466 95.8117 141.824 90.8162 134.515C77.9958 150.022 58.879 160.435 38.4548 160.435C13.0351 160.435 0 147.588 0 127.424ZM39.7591 142.713C55.8368 142.712 69.521 133.851 77.9958 121.223C68.2195 114.358 56.4853 110.591 42.5851 110.591C27.8134 110.591 20.4242 117.018 20.4242 127.205C20.4242 136.51 27.591 142.712 39.7591 142.713Z" fill="white"/>
  </svg>
</svg>
